# Blender 4.5.3 LTS
# www.blender.org
mtllib hyuvi.mtl
o Cube.004
v 0.229651 -0.103555 -1.091531
v -0.002925 0.469401 -0.921475
v 0.136015 -0.232017 -0.786772
v -0.096561 0.340939 -0.616717
v 0.500459 -0.027801 -0.976394
v 0.267883 0.545155 -0.806339
v 0.406824 -0.156263 -0.671636
v 0.174248 0.416693 -0.501580
vn -0.8912 -0.2493 -0.3789
vn -0.2724 -0.3737 0.8866
vn 0.8912 0.2493 0.3789
vn 0.2724 0.3737 -0.8866
vn 0.3627 -0.8934 -0.2652
vn -0.3627 0.8934 0.2652
vt 0.375000 0.000000
vt 0.625000 0.000000
vt 0.625000 0.250000
vt 0.375000 0.250000
vt 0.625000 0.500000
vt 0.375000 0.500000
vt 0.625000 0.750000
vt 0.375000 0.750000
vt 0.625000 1.000000
vt 0.375000 1.000000
vt 0.125000 0.500000
vt 0.125000 0.750000
vt 0.875000 0.500000
vt 0.875000 0.750000
s 0
f 1/1/1 3/4/1 4/3/1 2/2/1
f 3/4/2 7/6/2 8/5/2 4/3/2
f 7/6/3 5/8/3 6/7/3 8/5/3
f 5/8/4 1/10/4 2/9/4 6/7/4
f 3/11/5 1/12/5 5/8/5 7/6/5
f 8/5/6 6/7/6 2/14/6 4/13/6
o Cube.011
v 0.134657 0.144178 -1.042584
v -0.110216 0.747429 -0.863537
v 0.026691 -0.003944 -0.691185
v -0.218182 0.599306 -0.512138
v 0.432281 0.227434 -0.916047
v 0.187408 0.830684 -0.737000
v 0.324315 0.079311 -0.564647
v 0.079442 0.682562 -0.385600
vn -0.8912 -0.2493 -0.3789
vn -0.2724 -0.3737 0.8866
vn 0.8912 0.2493 0.3789
vn 0.2724 0.3737 -0.8866
vn 0.3627 -0.8934 -0.2652
vn -0.3627 0.8934 0.2652
vt 0.375000 0.000000
vt 0.625000 0.000000
vt 0.625000 0.250000
vt 0.375000 0.250000
vt 0.625000 0.500000
vt 0.375000 0.500000
vt 0.625000 0.750000
vt 0.375000 0.750000
vt 0.625000 1.000000
vt 0.375000 1.000000
vt 0.125000 0.500000
vt 0.125000 0.750000
vt 0.875000 0.500000
vt 0.875000 0.750000
s 0
f 9/15/7 11/18/7 12/17/7 10/16/7
f 11/18/8 15/20/8 16/19/8 12/17/8
f 15/20/9 13/22/9 14/21/9 16/19/9
f 13/22/10 9/24/10 10/23/10 14/21/10
f 11/25/11 9/26/11 13/22/11 15/20/11
f 16/19/12 14/21/12 10/28/12 12/27/12
o Cube.010
v 0.408195 -0.147313 0.757133
v 0.048944 0.358406 0.594418
v 0.357689 -0.076216 1.089612
v -0.001562 0.429503 0.926897
v 0.655915 0.028662 0.757133
v 0.296664 0.534381 0.594418
v 0.605409 0.099759 1.089612
v 0.246158 0.605478 0.926897
vn -0.8152 -0.5791 -0.0000
vn -0.1469 0.2068 0.9673
vn 0.8152 0.5791 -0.0000
vn 0.1469 -0.2068 -0.9673
vn 0.5602 -0.7886 0.2537
vn -0.5602 0.7886 -0.2537
vt 0.375000 0.000000
vt 0.625000 0.000000
vt 0.625000 0.250000
vt 0.375000 0.250000
vt 0.625000 0.500000
vt 0.375000 0.500000
vt 0.625000 0.750000
vt 0.375000 0.750000
vt 0.625000 1.000000
vt 0.375000 1.000000
vt 0.125000 0.500000
vt 0.125000 0.750000
vt 0.875000 0.500000
vt 0.875000 0.750000
s 0
f 17/29/13 19/32/13 20/31/13 18/30/13
f 19/32/14 23/34/14 24/33/14 20/31/14
f 23/34/15 21/36/15 22/35/15 24/33/15
f 21/36/16 17/38/16 18/37/16 22/35/16
f 19/39/17 17/40/17 21/36/17 23/34/17
f 24/33/18 22/35/18 18/42/18 20/41/18
o Cube.005
v 0.257521 0.057274 0.666396
v -0.120725 0.589732 0.495078
v 0.199286 0.139252 1.049758
v -0.178960 0.671710 0.878440
v 0.529771 0.250674 0.666396
v 0.151525 0.783132 0.495078
v 0.471535 0.332652 1.049758
v 0.093290 0.865110 0.878440
vn -0.8152 -0.5791 -0.0000
vn -0.1469 0.2068 0.9673
vn 0.8152 0.5791 -0.0000
vn 0.1469 -0.2068 -0.9673
vn 0.5602 -0.7886 0.2537
vn -0.5602 0.7886 -0.2537
vt 0.375000 0.000000
vt 0.625000 0.000000
vt 0.625000 0.250000
vt 0.375000 0.250000
vt 0.625000 0.500000
vt 0.375000 0.500000
vt 0.625000 0.750000
vt 0.375000 0.750000
vt 0.625000 1.000000
vt 0.375000 1.000000
vt 0.125000 0.500000
vt 0.125000 0.750000
vt 0.875000 0.500000
vt 0.875000 0.750000
s 0
f 25/43/19 27/46/19 28/45/19 26/44/19
f 27/46/20 31/48/20 32/47/20 28/45/20
f 31/48/21 29/50/21 30/49/21 32/47/21
f 29/50/22 25/52/22 26/51/22 30/49/22
f 27/53/23 25/54/23 29/50/23 31/48/23
f 32/47/24 30/49/24 26/56/24 28/55/24
o Cube.009
v -1.031250 -0.029146 0.126203
v -1.031250 0.241568 0.126203
v -1.031250 -0.029146 -0.126203
v -1.031250 0.241568 -0.126203
v -0.678813 -0.029146 0.126203
v -0.678813 0.241568 0.126203
v -0.678813 -0.029146 -0.126203
v -0.678813 0.241568 -0.126203
vn -1.0000 -0.0000 -0.0000
vn -0.0000 -0.0000 -1.0000
vn 1.0000 -0.0000 -0.0000
vn -0.0000 -0.0000 1.0000
vn -0.0000 -1.0000 -0.0000
vn -0.0000 1.0000 -0.0000
vt 0.375000 0.000000
vt 0.625000 0.000000
vt 0.625000 0.250000
vt 0.375000 0.250000
vt 0.625000 0.500000
vt 0.375000 0.500000
vt 0.625000 0.750000
vt 0.375000 0.750000
vt 0.625000 1.000000
vt 0.375000 1.000000
vt 0.125000 0.500000
vt 0.125000 0.750000
vt 0.875000 0.500000
vt 0.875000 0.750000
s 0
f 33/57/25 34/58/25 36/59/25 35/60/25
f 35/60/26 36/59/26 40/61/26 39/62/26
f 39/62/27 40/61/27 38/63/27 37/64/27
f 37/64/28 38/63/28 34/65/28 33/66/28
f 35/67/29 39/62/29 37/64/29 33/68/29
f 40/61/30 36/69/30 34/70/30 38/63/30
o Cube.008
v -1.772335 -0.447687 0.111095
v -1.772335 0.692083 0.111095
v -1.772335 -0.447687 -0.111095
v -1.772335 0.692083 -0.111095
v -0.906127 -0.447687 0.111095
v -0.906127 0.692083 0.111095
v -0.906127 -0.447687 -0.111095
v -0.906127 0.692083 -0.111095
vn -1.0000 -0.0000 -0.0000
vn -0.0000 -0.0000 -1.0000
vn 1.0000 -0.0000 -0.0000
vn -0.0000 -0.0000 1.0000
vn -0.0000 -1.0000 -0.0000
vn -0.0000 1.0000 -0.0000
vt 0.375000 0.000000
vt 0.625000 0.000000
vt 0.625000 0.250000
vt 0.375000 0.250000
vt 0.625000 0.500000
vt 0.375000 0.500000
vt 0.625000 0.750000
vt 0.375000 0.750000
vt 0.625000 1.000000
vt 0.375000 1.000000
vt 0.125000 0.500000
vt 0.125000 0.750000
vt 0.875000 0.500000
vt 0.875000 0.750000
s 0
f 41/71/31 42/72/31 44/73/31 43/74/31
f 43/74/32 44/73/32 48/75/32 47/76/32
f 47/76/33 48/75/33 46/77/33 45/78/33
f 45/78/34 46/77/34 42/79/34 41/80/34
f 43/81/35 47/76/35 45/78/35 41/82/35
f 48/75/36 44/83/36 42/84/36 46/77/36
o Cube.007
v -0.676073 -0.070942 0.165173
v -0.676073 0.283364 0.165173
v -0.676073 -0.070942 -0.165173
v -0.676073 0.283364 -0.165173
v -0.323635 -0.070942 0.165173
v -0.323635 0.283364 0.165173
v -0.323635 -0.070942 -0.165173
v -0.323635 0.283364 -0.165173
vn -1.0000 -0.0000 -0.0000
vn -0.0000 -0.0000 -1.0000
vn 1.0000 -0.0000 -0.0000
vn -0.0000 -0.0000 1.0000
vn -0.0000 -1.0000 -0.0000
vn -0.0000 1.0000 -0.0000
vt 0.375000 0.000000
vt 0.625000 0.000000
vt 0.625000 0.250000
vt 0.375000 0.250000
vt 0.625000 0.500000
vt 0.375000 0.500000
vt 0.625000 0.750000
vt 0.375000 0.750000
vt 0.625000 1.000000
vt 0.375000 1.000000
vt 0.125000 0.500000
vt 0.125000 0.750000
vt 0.875000 0.500000
vt 0.875000 0.750000
s 0
f 49/85/37 50/86/37 52/87/37 51/88/37
f 51/88/38 52/87/38 56/89/38 55/90/38
f 55/90/39 56/89/39 54/91/39 53/92/39
f 53/92/40 54/91/40 50/93/40 49/94/40
f 51/95/41 55/90/41 53/92/41 49/96/41
f 56/89/42 52/97/42 50/98/42 54/91/42
o Cube
v -0.752421 0.225215 0.027804
v -0.752421 0.407363 0.027804
v -0.752421 0.225215 -0.027804
v -0.752421 0.407363 -0.027804
v -0.604328 0.225215 0.027804
v -0.604328 0.407363 0.027804
v -0.604328 0.225215 -0.027804
v -0.604328 0.407363 -0.027804
vn -1.0000 -0.0000 -0.0000
vn -0.0000 -0.0000 -1.0000
vn 1.0000 -0.0000 -0.0000
vn -0.0000 -0.0000 1.0000
vn -0.0000 -1.0000 -0.0000
vn -0.0000 1.0000 -0.0000
vt 0.375000 0.000000
vt 0.625000 0.000000
vt 0.625000 0.250000
vt 0.375000 0.250000
vt 0.625000 0.500000
vt 0.375000 0.500000
vt 0.625000 0.750000
vt 0.375000 0.750000
vt 0.625000 1.000000
vt 0.375000 1.000000
vt 0.125000 0.500000
vt 0.125000 0.750000
vt 0.875000 0.500000
vt 0.875000 0.750000
s 0
f 57/99/43 58/100/43 60/101/43 59/102/43
f 59/102/44 60/101/44 64/103/44 63/104/44
f 63/104/45 64/103/45 62/105/45 61/106/45
f 61/106/46 62/105/46 58/107/46 57/108/46
f 59/109/47 63/104/47 61/106/47 57/110/47
f 64/103/48 60/111/48 58/112/48 62/105/48
o Cube.003
v -0.323897 -0.954894 -0.565576
v -0.307290 -0.097741 -0.487164
v -0.324829 -1.003014 -0.039353
v -0.308222 -0.145862 0.039059
v 0.308222 -0.967140 -0.565576
v 0.324829 -0.109988 -0.487164
v 0.307290 -1.015261 -0.039353
v 0.323897 -0.158109 0.039059
vn -0.9998 0.0194 -0.0000
vn -0.0018 -0.0911 0.9958
vn 0.9998 -0.0194 -0.0000
vn 0.0018 0.0911 -0.9958
vn -0.0193 -0.9957 -0.0911
vn 0.0193 0.9957 0.0911
vt 0.375000 0.000000
vt 0.625000 0.000000
vt 0.625000 0.250000
vt 0.375000 0.250000
vt 0.625000 0.500000
vt 0.375000 0.500000
vt 0.625000 0.750000
vt 0.375000 0.750000
vt 0.625000 1.000000
vt 0.375000 1.000000
vt 0.125000 0.500000
vt 0.125000 0.750000
vt 0.875000 0.500000
vt 0.875000 0.750000
s 0
f 65/113/49 67/116/49 68/115/49 66/114/49
f 67/116/50 71/118/50 72/117/50 68/115/50
f 71/118/51 69/120/51 70/119/51 72/117/51
f 69/120/52 65/122/52 66/121/52 70/119/52
f 67/123/53 65/124/53 69/120/53 71/118/53
f 72/117/54 70/119/54 66/126/54 68/125/54
o Cube.002
v -0.280133 -1.015727 0.016193
v -0.349280 -0.157763 0.000342
v -0.280914 -1.006029 0.544523
v -0.350061 -0.148065 0.528672
v 0.350061 -0.964937 0.016193
v 0.280914 -0.106973 0.000342
v 0.349280 -0.955239 0.544523
v 0.280133 -0.097275 0.528672
vn -0.9968 -0.0803 -0.0000
vn -0.0015 0.0184 0.9998
vn 0.9968 0.0803 -0.0000
vn 0.0015 -0.0184 -0.9998
vn 0.0803 -0.9966 0.0184
vn -0.0803 0.9966 -0.0184
vt 0.375000 0.000000
vt 0.625000 0.000000
vt 0.625000 0.250000
vt 0.375000 0.250000
vt 0.625000 0.500000
vt 0.375000 0.500000
vt 0.625000 0.750000
vt 0.375000 0.750000
vt 0.625000 1.000000
vt 0.375000 1.000000
vt 0.125000 0.500000
vt 0.125000 0.750000
vt 0.875000 0.500000
vt 0.875000 0.750000
s 0
f 73/127/55 75/130/55 76/129/55 74/128/55
f 75/130/56 79/132/56 80/131/56 76/129/56
f 79/132/57 77/134/57 78/133/57 80/131/57
f 77/134/58 73/136/58 74/135/58 78/133/58
f 75/137/59 73/138/59 77/134/59 79/132/59
f 80/131/60 78/133/60 74/140/60 76/139/60
o Cube.001
v -1.116246 1.075950 -0.142649
v -1.116246 1.560773 -0.142649
v -1.116246 1.075950 0.142649
v -1.116246 1.560773 0.142649
v -0.608172 1.075950 -0.142649
v -0.608172 1.560773 -0.142649
v -0.608172 1.075950 0.142649
v -0.608172 1.560773 0.142649
vn -1.0000 -0.0000 -0.0000
vn -0.0000 -0.0000 1.0000
vn 1.0000 -0.0000 -0.0000
vn -0.0000 -0.0000 -1.0000
vn -0.0000 -1.0000 -0.0000
vn -0.0000 1.0000 -0.0000
vt 0.375000 0.000000
vt 0.625000 0.000000
vt 0.625000 0.250000
vt 0.375000 0.250000
vt 0.625000 0.500000
vt 0.375000 0.500000
vt 0.625000 0.750000
vt 0.375000 0.750000
vt 0.625000 1.000000
vt 0.375000 1.000000
vt 0.125000 0.500000
vt 0.125000 0.750000
vt 0.875000 0.500000
vt 0.875000 0.750000
s 0
f 81/141/61 83/144/61 84/143/61 82/142/61
f 83/144/62 87/146/62 88/145/62 84/143/62
f 87/146/63 85/148/63 86/147/63 88/145/63
f 85/148/64 81/150/64 82/149/64 86/147/64
f 83/151/65 81/152/65 85/148/65 87/146/65
f 88/145/66 86/147/66 82/154/66 84/153/66
o Cube.006
v -0.875163 1.605302 -0.142649
v -0.875163 2.090125 -0.142649
v -0.875163 1.605302 0.142649
v -0.875163 2.090125 0.142649
v -0.367090 1.605302 -0.142649
v -0.367090 2.090125 -0.142649
v -0.367090 1.605302 0.142649
v -0.367090 2.090125 0.142649
vn -1.0000 -0.0000 -0.0000
vn -0.0000 -0.0000 1.0000
vn 1.0000 -0.0000 -0.0000
vn -0.0000 -0.0000 -1.0000
vn -0.0000 -1.0000 -0.0000
vn -0.0000 1.0000 -0.0000
vt 0.375000 0.000000
vt 0.625000 0.000000
vt 0.625000 0.250000
vt 0.375000 0.250000
vt 0.625000 0.500000
vt 0.375000 0.500000
vt 0.625000 0.750000
vt 0.375000 0.750000
vt 0.625000 1.000000
vt 0.375000 1.000000
vt 0.125000 0.500000
vt 0.125000 0.750000
vt 0.875000 0.500000
vt 0.875000 0.750000
s 0
f 89/155/67 91/158/67 92/157/67 90/156/67
f 91/158/68 95/160/68 96/159/68 92/157/68
f 95/160/69 93/162/69 94/161/69 96/159/69
f 93/162/70 89/164/70 90/163/70 94/161/70
f 91/165/71 89/166/71 93/162/71 95/160/71
f 96/159/72 94/161/72 90/168/72 92/167/72
o Cube.012
v -0.752421 -0.198015 0.027804
v -0.752421 -0.015867 0.027804
v -0.752421 -0.198015 -0.027804
v -0.752421 -0.015867 -0.027804
v -0.604328 -0.198015 0.027804
v -0.604328 -0.015867 0.027804
v -0.604328 -0.198015 -0.027804
v -0.604328 -0.015867 -0.027804
vn -1.0000 -0.0000 -0.0000
vn -0.0000 -0.0000 -1.0000
vn 1.0000 -0.0000 -0.0000
vn -0.0000 -0.0000 1.0000
vn -0.0000 -1.0000 -0.0000
vn -0.0000 1.0000 -0.0000
vt 0.375000 0.000000
vt 0.625000 0.000000
vt 0.625000 0.250000
vt 0.375000 0.250000
vt 0.625000 0.500000
vt 0.375000 0.500000
vt 0.625000 0.750000
vt 0.375000 0.750000
vt 0.625000 1.000000
vt 0.375000 1.000000
vt 0.125000 0.500000
vt 0.125000 0.750000
vt 0.875000 0.500000
vt 0.875000 0.750000
s 0
f 97/169/73 98/170/73 100/171/73 99/172/73
f 99/172/74 100/171/74 104/173/74 103/174/74
f 103/174/75 104/173/75 102/175/75 101/176/75
f 101/176/76 102/175/76 98/177/76 97/178/76
f 99/179/77 103/174/77 101/176/77 97/180/77
f 104/173/78 100/181/78 98/182/78 102/175/78
o kepala
v 0.751164 1.750807 -0.469196
v 0.751164 0.768737 -0.469196
v 0.751164 1.750807 0.469196
v 0.751164 0.768737 0.469196
v -0.705061 1.750807 -0.469196
v -0.705061 0.768737 -0.469196
v -0.705061 1.750807 0.469196
v -0.705061 0.768737 0.469196
vn -0.0000 1.0000 -0.0000
vn -0.0000 -0.0000 1.0000
vn -1.0000 -0.0000 -0.0000
vn -0.0000 -1.0000 -0.0000
vn 1.0000 -0.0000 -0.0000
vn -0.0000 -0.0000 -1.0000
vt 0.625000 0.500000
vt 0.875000 0.500000
vt 0.875000 0.750000
vt 0.625000 0.750000
vt 0.375000 0.750000
vt 0.625000 1.000000
vt 0.375000 1.000000
vt 0.375000 0.000000
vt 0.625000 0.000000
vt 0.625000 0.250000
vt 0.375000 0.250000
vt 0.125000 0.500000
vt 0.375000 0.500000
vt 0.125000 0.750000
s 0
usemtl Material
f 105/183/79 109/184/79 111/185/79 107/186/79
f 108/187/80 107/186/80 111/188/80 112/189/80
f 112/190/81 111/191/81 109/192/81 110/193/81
f 110/194/82 106/195/82 108/187/82 112/196/82
f 106/195/83 105/183/83 107/186/83 108/187/83
f 110/193/84 109/192/84 105/183/84 106/195/84
o body
v -0.378597 -0.161934 0.554781
v -0.378597 0.867692 0.554781
v -0.378597 -0.161934 -0.554781
v -0.378597 0.867692 -0.554781
v 0.378597 -0.161934 0.554781
v 0.378597 0.867692 0.554781
v 0.378597 -0.161934 -0.554781
v 0.378597 0.867692 -0.554781
vn -1.0000 -0.0000 -0.0000
vn -0.0000 -0.0000 -1.0000
vn 1.0000 -0.0000 -0.0000
vn -0.0000 -0.0000 1.0000
vn -0.0000 -1.0000 -0.0000
vn -0.0000 1.0000 -0.0000
vt 0.375000 0.000000
vt 0.625000 0.000000
vt 0.625000 0.250000
vt 0.375000 0.250000
vt 0.625000 0.500000
vt 0.375000 0.500000
vt 0.625000 0.750000
vt 0.375000 0.750000
vt 0.625000 1.000000
vt 0.375000 1.000000
vt 0.125000 0.500000
vt 0.125000 0.750000
vt 0.875000 0.500000
vt 0.875000 0.750000
s 0
f 113/197/85 114/198/85 116/199/85 115/200/85
f 115/200/86 116/199/86 120/201/86 119/202/86
f 119/202/87 120/201/87 118/203/87 117/204/87
f 117/204/88 118/203/88 114/205/88 113/206/88
f 115/207/89 119/202/89 117/204/89 113/208/89
f 120/201/90 116/209/90 114/210/90 118/203/90
o 
v 0.000000 -1.504272 0.000000
